PathFileType	4	(X/Y/Z)	/Users/itak/Documents/Research/Walk-IL/dataset/trc/00001_00004.trc
DataRate	CameraRate	NumFrames	NumMarkers	Units	OrigDataRate	OrigDataStartFrame	OrigNumFrames
100.000000	100.000000	4	53	mm	100.000000	94	378
Frame#	Time	RPSI			LPSI			L3			STRN			T10			C7			CLAV			RBAK			LBAK			LSHO			LUPA			LAEL			LAOL			LWTS			LWPS			LFRA			LIFD			LHPS			LHTS			RSHO			RUPA			RAEL			RAOL			RWTS			RWPS			RFRA			RIFD			RHTS			RHPS			RBHD			LFHD			RFHD			LBHD			LHIP			RHIP			RASI			LASI			LKNE			LTHI			LANK			LTIP			LTOE			LMT1			LMT5			LHEE			RKNE			RTHI			RANK			RTIP			RTOE			RMT1			RMT5			RHEE			
		X1	Y1	Z1	X2	Y2	Z2	X3	Y3	Z3	X4	Y4	Z4	X5	Y5	Z5	X6	Y6	Z6	X7	Y7	Z7	X8	Y8	Z8	X9	Y9	Z9	X10	Y10	Z10	X11	Y11	Z11	X12	Y12	Z12	X13	Y13	Z13	X14	Y14	Z14	X15	Y15	Z15	X16	Y16	Z16	X17	Y17	Z17	X18	Y18	Z18	X19	Y19	Z19	X20	Y20	Z20	X21	Y21	Z21	X22	Y22	Z22	X23	Y23	Z23	X24	Y24	Z24	X25	Y25	Z25	X26	Y26	Z26	X27	Y27	Z27	X28	Y28	Z28	X29	Y29	Z29	X30	Y30	Z30	X31	Y31	Z31	X32	Y32	Z32	X33	Y33	Z33	X34	Y34	Z34	X35	Y35	Z35	X36	Y36	Z36	X37	Y37	Z37	X38	Y38	Z38	X39	Y39	Z39	X40	Y40	Z40	X41	Y41	Z41	X42	Y42	Z42	X43	Y43	Z43	X44	Y44	Z44	X45	Y45	Z45	X46	Y46	Z46	X47	Y47	Z47	X48	Y48	Z48	X49	Y49	Z49	X50	Y50	Z50	X51	Y51	Z51	X52	Y52	Z52	X53	Y53	Z53	

95	0.9400000000000001	-1239.98193359375	1070.447143554688	-173.4516296386719	-1249.527587890625	1063.383178710938	-337.0799865722656	-1250.517822265625	1130.052490234375	-263.752685546875	-1028.862670898438	1324.24560546875	-266.5231323242188	-1278.839111328125	1273.709594726562	-269.1155395507812	-1233.171875	1541.328125	-279.714111328125	-1072.5869140625	1449.673217773438	-272.5190124511719	-1284.094116210938	1404.412231445312	-200.3698425292969	-1248.696044921875	1500.25439453125	-378.0814208984375	-1144.663696289062	1507.673461914062	-449.7632446289062	-1169.745483398438	1382.429809570312	-528.8627319335938	-1161.661376953125	1163.307739257812	-549.3847045898438	-1224.695068359375	1151.065185546875	-464.0488586425781	-1078.348876953125	910.359375	-487.1670532226562	-1152.2763671875	895.5161743164062	-532.822021484375	-1148.931396484375	1047.088989257812	-553.3519287109375	-1051.805786132812	729.111328125	-462.6756896972656	-1119.400634765625	806.0425415039062	-529.0348510742188	-1052.6162109375	819.2138671875	-499.1197509765625	-1158.066040039062	1528.240356445312	-104.7021179199219	-1172.000610351562	1456.390991210938	-31.89011001586914	-1208.274536132812	1188.685791015625	-6.765383720397949	-1208.009887695312	1158.919799804688	-102.868896484375	-1077.086547851562	929.9920654296875	-28.39056015014648	-1144.304565429688	916.417236328125	34.41641235351562	-1194.869384765625	1113.637329101562	10.63901424407959	-1063.070434570312	750.8876953125	-48.37698745727539	-1043.309692382812	820.7944946289062	-10.10646438598633	-1102.555419921875	816.5254516601562	36.88135528564453	-1195.447509765625	1728.771484375	-309.5403137207031	-983.535400390625	1730.857788085938	-255.6299133300781	-1016.777709960938	1735.757202148438	-348.0889892578125	-1140.666015625	1717.22802734375	-176.6210327148438	-1157.71044921875	961.7625122070312	-446.2591857910156	-1120.474609375	964.2822265625	-75.28203582763672	-1023.518310546875	995.6571044921875	-153.0217132568359	-1039.052978515625	1009.151977539062	-388.2212829589844	-1124.747192382812	516.357666015625	-393.8421630859375	-1143.553344726562	652.6798706054688	-430.6144104003906	-1229.7841796875	42.46131896972656	-388.8926696777344	-1209.734985351562	287.7040710449219	-410.3988647460938	-1009.563537597656	40.30633544921875	-325.7918395996094	-1068.767578125	49.32995223999023	-308.2864685058594	-1104.913818359375	40.09893417358398	-409.209716796875	-1298.682739257812	49.45888137817383	-335.7082824707031	-1126.317626953125	527.5330810546875	-122.4150466918945	-1102.4580078125	795.2067260742188	-77.52132415771484	-1240.123046875	48.02501678466797	-143.0576019287109	-1153.698974609375	405.7179870605469	-121.689323425293	-1007.871765136719	44.6981315612793	-183.2542572021484	-1070.717407226562	49.22633743286133	-214.3254699707031	-1090.64404296875	46.26049423217773	-119.1290435791016	-1294.537109375	46.38078689575195	-187.5636444091797	
96	0.9500000000000001	-1240.031616210938	1070.4521484375	-173.5216979980469	-1249.549438476562	1063.349975585938	-337.1627807617188	-1250.537719726562	1130.0751953125	-263.8287658691406	-1028.821044921875	1324.234741210938	-266.5794067382812	-1278.841918945312	1273.726684570312	-269.2076721191406	-1233.143920898438	1541.3359375	-279.807861328125	-1072.555419921875	1449.662231445312	-272.5637817382812	-1284.067993164062	1404.423828125	-200.4608306884766	-1248.561889648438	1500.259521484375	-378.2401733398438	-1144.587768554688	1507.671020507812	-449.86767578125	-1169.638916015625	1382.439575195312	-528.9541625976562	-1161.530639648438	1163.319946289062	-549.4741821289062	-1224.6103515625	1151.066772460938	-464.1651306152344	-1078.154541015625	910.425048828125	-487.2303161621094	-1152.117797851562	895.519287109375	-532.9064331054688	-1148.837768554688	1047.098510742188	-553.4361572265625	-1051.802978515625	729.2017211914062	-462.8132629394531	-1119.269165039062	806.0802612304688	-529.1201782226562	-1052.473999023438	819.1900634765625	-499.1968383789062	-1158.057006835938	1528.22509765625	-104.7761001586914	-1172.017456054688	1456.368530273438	-31.96859169006348	-1208.298095703125	1188.657104492188	-6.875056743621826	-1208.030517578125	1158.903442382812	-102.9893264770508	-1076.970947265625	930.0533447265625	-28.58144378662109	-1144.18505859375	916.3992309570312	34.19345855712891	-1194.851196289062	1113.588500976562	10.51246547698975	-1062.921875	750.9072875976562	-48.59850311279297	-1043.06640625	820.8124389648438	-10.37888336181641	-1102.33154296875	816.57666015625	36.68979644775391	-1195.252685546875	1728.76904296875	-309.7773132324219	-983.4555053710938	1730.80859375	-255.5852355957031	-1016.592895507812	1735.667114257812	-348.0886535644531	-1140.643310546875	1717.264892578125	-176.7315063476562	-1157.702514648438	961.7472534179688	-446.3157043457031	-1120.679077148438	964.2757568359375	-75.20331573486328	-1023.535217285156	995.6477661132812	-153.0735778808594	-1039.044677734375	1009.138061523438	-388.2720947265625	-1124.8076171875	516.3565063476562	-393.8775939941406	-1143.606811523438	652.6837158203125	-430.6421508789062	-1229.78857421875	42.45932769775391	-388.8985595703125	-1209.75244140625	287.6954345703125	-410.4154052734375	-1009.563049316406	40.30570220947266	-325.7898559570312	-1068.772705078125	49.33225250244141	-308.2894897460938	-1104.915405273438	40.1009521484375	-409.2126159667969	-1298.686157226562	49.46212005615234	-335.7172546386719	-1126.31396484375	527.532470703125	-122.4483032226562	-1102.483520507812	795.2269897460938	-77.55994415283203	-1240.120971679688	48.02566528320312	-143.0602264404297	-1153.696533203125	405.7109069824219	-121.708366394043	-1007.871276855469	44.69977951049805	-183.2577514648438	-1070.716796875	49.22478103637695	-214.3292541503906	-1090.640380859375	46.25896453857422	-119.1371536254883	-1294.537353515625	46.37009429931641	-187.5639343261719	
97	0.96	-1240.06982421875	1070.457641601562	-173.5831604003906	-1249.565795898438	1063.323852539062	-337.2306518554688	-1250.5546875	1130.098999023438	-263.8977355957031	-1028.778686523438	1324.220825195312	-266.6364135742188	-1278.834106445312	1273.74560546875	-269.28662109375	-1233.10302734375	1541.342163085938	-279.8895263671875	-1072.5263671875	1449.651611328125	-272.6031188964844	-1284.032470703125	1404.43603515625	-200.5385437011719	-1248.430908203125	1500.270141601562	-378.3777160644531	-1144.50927734375	1507.672241210938	-449.9591674804688	-1169.5234375	1382.453857421875	-529.034423828125	-1161.388061523438	1163.334838867188	-549.5542602539062	-1224.515380859375	1151.070068359375	-464.2694396972656	-1077.923828125	910.5047607421875	-487.2858276367188	-1151.946044921875	895.5247192382812	-532.9757690429688	-1148.722290039062	1047.109130859375	-553.5078125	-1051.787841796875	729.2822875976562	-462.94189453125	-1119.120239257812	806.1248779296875	-529.1961669921875	-1052.312744140625	819.1691284179688	-499.26416015625	-1158.0322265625	1528.20458984375	-104.8416137695312	-1172.022216796875	1456.34423828125	-32.03853607177734	-1208.308959960938	1188.626953125	-6.97781229019165	-1208.041870117188	1158.88525390625	-103.0989532470703	-1076.846069335938	930.1068725585938	-28.76550674438477	-1144.058715820312	916.3794555664062	33.98200988769531	-1194.819213867188	1113.538330078125	10.39538097381592	-1062.764404296875	750.9215698242188	-48.79260635375977	-1042.843505859375	820.8226318359375	-10.6298828125	-1102.104125976562	816.6148681640625	36.49999237060547	-1195.037841796875	1728.768310546875	-310.0474548339844	-983.36328125	1730.754028320312	-255.51025390625	-1016.387756347656	1735.56494140625	-348.0636291503906	-1140.626586914062	1717.310302734375	-176.8446044921875	-1157.699096679688	961.733154296875	-446.3672180175781	-1120.855834960938	964.2723388671875	-75.13831329345703	-1023.544372558594	995.6380004882812	-153.127685546875	-1039.052734375	1009.121826171875	-388.3266906738281	-1124.8642578125	516.3560791015625	-393.9143371582031	-1143.656860351562	652.68798828125	-430.6690979003906	-1229.794311523438	42.45703887939453	-388.9028930664062	-1209.770629882812	287.6888732910156	-410.4312438964844	-1009.563415527344	40.3056640625	-325.7886657714844	-1068.777221679688	49.33584976196289	-308.2932739257812	-1104.916748046875	40.10233306884766	-409.2164611816406	-1298.689208984375	49.46233749389648	-335.7304382324219	-1126.31201171875	527.5335693359375	-122.4817276000977	-1102.5068359375	795.2409057617188	-77.59575653076172	-1240.11669921875	48.02533721923828	-143.0615234375	-1153.696655273438	405.7033386230469	-121.7268676757812	-1007.870361328125	44.70065307617188	-183.2614135742188	-1070.716186523438	49.22344970703125	-214.3334197998047	-1090.637573242188	46.25741195678711	-119.1444702148438	-1294.537475585938	46.36051559448242	-187.5633697509766	
98	0.97	-1240.095581054688	1070.463623046875	-173.6366271972656	-1249.577026367188	1063.305053710938	-337.2847290039062	-1250.56787109375	1130.1240234375	-263.9599609375	-1028.735595703125	1324.2041015625	-266.6941833496094	-1278.814331054688	1273.765991210938	-269.3526306152344	-1233.049926757812	1541.346923828125	-279.960205078125	-1072.4970703125	1449.641967773438	-272.6386413574219	-1283.988647460938	1404.448974609375	-200.6047210693359	-1248.306396484375	1500.286499023438	-378.4922790527344	-1144.4287109375	1507.677124023438	-450.0376281738281	-1169.400512695312	1382.472290039062	-529.1041259765625	-1161.238037109375	1163.351318359375	-549.6256103515625	-1224.409790039062	1151.074951171875	-464.3629455566406	-1077.659545898438	910.5966796875	-487.3329467773438	-1151.760864257812	895.5325317382812	-533.03125	-1148.58349609375	1047.120971679688	-553.5679321289062	-1051.742919921875	729.34716796875	-463.0530395507812	-1118.947143554688	806.1756591796875	-529.26123046875	-1052.132080078125	819.1552124023438	-499.3206481933594	-1157.99365234375	1528.1796875	-104.9003448486328	-1172.0146484375	1456.31884765625	-32.10064315795898	-1208.306884765625	1188.595703125	-7.074551582336426	-1208.0400390625	1158.86572265625	-103.1979293823242	-1076.71044921875	930.1511840820312	-28.94206237792969	-1143.925659179688	916.3580932617188	33.78338241577148	-1194.772216796875	1113.488037109375	10.28717803955078	-1062.594482421875	750.935302734375	-48.96562194824219	-1042.642700195312	820.8296508789062	-10.85667705535889	-1101.875732421875	816.6370239257812	36.30832672119141	-1194.805053710938	1728.77294921875	-310.3510437011719	-983.2587890625	1730.6923828125	-255.3967895507812	-1016.154602050781	1735.450439453125	-348.0094299316406	-1140.624145507812	1717.365844726562	-176.9664154052734	-1157.69970703125	961.7203979492188	-446.4140319824219	-1120.999755859375	964.2718505859375	-75.09022521972656	-1023.546203613281	995.6282958984375	-153.18310546875	-1039.073120117188	1009.104248046875	-388.3841552734375	-1124.915405273438	516.3561401367188	-393.951904296875	-1143.701293945312	652.6917724609375	-430.6953735351562	-1229.800659179688	42.45437240600586	-388.905517578125	-1209.7890625	287.684326171875	-410.4462280273438	-1009.564514160156	40.30619049072266	-325.7884216308594	-1068.78125	49.34050750732422	-308.2977600097656	-1104.91796875	40.10294723510742	-409.2210388183594	-1298.691650390625	49.45938873291016	-335.7464904785156	-1126.3115234375	527.5361328125	-122.5149230957031	-1102.52587890625	795.2462158203125	-77.62847900390625	-1240.110595703125	48.02414321899414	-143.0615386962891	-1153.69873046875	405.6961669921875	-121.7447814941406	-1007.869201660156	44.70090866088867	-183.2649688720703	-1070.715698242188	49.22251129150391	-214.3377990722656	-1090.6357421875	46.25625228881836	-119.1506271362305	-1294.53759765625	46.35224151611328	-187.5620574951172	
